<svg xmlns="http://www.w3.org/2000/svg" viewBox="0 0 344.932 77.417"><defs><style>.cls-1{fill:#231f20;}</style></defs><g id="Layer_2" data-name="Layer 2"><g id="Layer_1-2" data-name="Layer 1"><path class="cls-1" d="M7.851,35.912c0-.468.233-.857,1.01-.857.544,0,1.555.079,2.8.079h.933c.234-6.218.544-12.748,1.088-23.708C8.628,13.679,4.508,16.712,3.5,18.888,1.633,18.267,0,15.857,0,13.37A6.5,6.5,0,0,1,1.477,9.328C4.586,5.286,12.592,3.343,20.754,3.343c6.529,0,13.447,1.32,17.022,3.73,4.819,3.265,6.841,7.463,6.841,11.349,0,4.508-2.488,9.018-6.3,12.748-4.042,4.041-10.493,6.684-16.4,7.927v3.576c0,7.617.156,15.778.467,19.121a10.257,10.257,0,0,1-1.555.079c-3.109,0-6.062-1.4-7.228-4.121-.856-1.866-1.166-6.761-1.166-13.058V39.8a6.717,6.717,0,0,1-3.265-1.554A3.629,3.629,0,0,1,7.851,35.912ZM22,33.268a26.043,26.043,0,0,0,8.7-5.441,17.25,17.25,0,0,0,4.975-11.738c0-5.363-4.2-7.694-9.483-7.694a22.925,22.925,0,0,0-5.519.7l.311.7c.855,1.944,1.321,7.307,1.321,12.671,0,2.875-.155,6.372-.233,9.87C22.075,32.645,22,32.958,22,33.268Z"/><path class="cls-1" d="M87.519,48.347A2.811,2.811,0,0,1,89.462,51.3a5.3,5.3,0,0,1-.155,1.088c-.855,3.576-3.653,7.928-7.384,9.327a7.877,7.877,0,0,1-2.644.467,10.781,10.781,0,0,1-9.327-6.452,20.236,20.236,0,0,1-.855-6.685c0-3.03.233-6.373.389-9.171.077-2.41.311-4.82.311-6.841,0-2.41-.311-4.2-1.555-4.2-1.787.079-4.974,7.151-7.617,14.847-2.488,7.307-4.12,13.679-4.275,16.712-.078.776-.467,1.165-1.088,1.165-1.866,0-5.441-3.031-5.908-6.763-.311-2.874-.7-13.6-.7-24.406,0-11.5.467-22.464,2.255-26.894A5.4,5.4,0,0,1,56.116,0c3.654,0,7.7,3.186,8.862,8.784a15.207,15.207,0,0,1,.233,2.642c0,5.83-3.5,12.282-6.84,18.422-.234,2.876-.389,6.451-.778,11.426.389-1.477,4.275-14.612,7.773-17.1a6.283,6.283,0,0,1,3.887-1.243c3.808,0,7.851,2.876,8.939,6.217a20.435,20.435,0,0,1,.7,5.6c0,2.72-.311,5.753-.544,8.782-.233,2.644-.544,5.753-.544,8.318,0,2.332.311,5.129,2.332,5.129C82.777,56.974,86.275,52.468,87.519,48.347ZM60.7,10.96c0-2.021-1.166-2.954-2.1-2.954a2.105,2.105,0,0,0-1.865,1.632,24.5,24.5,0,0,0-.7,6.919c0,4.042.388,8.938.388,8.86C58.759,20.831,60.7,16.4,60.7,10.96Z"/><path class="cls-1" d="M115.653,46.016c-.7,5.984-2.487,11.5-6.685,14.146a10.3,10.3,0,0,1-5.441,1.4c-5.208,0-11.27-2.8-13.6-7.072a28.086,28.086,0,0,1-3.187-13.6c0-7.23,2.255-14.148,6.141-17.024A7.946,7.946,0,0,1,97.465,22a8.67,8.67,0,0,1,3.963-.854,14.738,14.738,0,0,1,5.131,1.009,12.565,12.565,0,0,1,7.7,7.928,40.378,40.378,0,0,1,1.71,10.106,17.089,17.089,0,0,0,5.363-2.021,8.79,8.79,0,0,0,4.042-4.663,4.418,4.418,0,0,1,2.254,3.653,6.822,6.822,0,0,1-1.632,4.041C123.659,43.916,120.084,45.393,115.653,46.016ZM98.009,50.757c1.01,3.5,2.642,5.83,4.43,5.83a2.069,2.069,0,0,0,.932-.233c.933-.389,1.866-1.633,2.721-3.5a34.736,34.736,0,0,0,2.1-6.763,32.19,32.19,0,0,1-5.985-1.477,19.838,19.838,0,0,1-5.441-3.032A32.293,32.293,0,0,0,98.009,50.757Zm11.037-10.184c.077-.776.156-1.707.156-2.64a18.089,18.089,0,0,0-.933-6.064c-1.244-3.109-3.965-5.286-6.141-5.286a2.9,2.9,0,0,0-2.1.932,5.165,5.165,0,0,0-1.244,3.422c0,2.331,1.321,4.818,3.42,6.917A10.985,10.985,0,0,0,109.046,40.573Z"/><path class="cls-1" d="M123.966,54.1c-.544-1.556-.7-4.354-.7-8.318,0-4.663.233-10.727.544-16.945,0-.854.078-2.175.156-3.187-2.721-.076-4.819-.233-5.208-.233a7.709,7.709,0,0,1-.311-1.943c0-.622.155-1.166.622-1.322a24.123,24.123,0,0,1,4.974-.544c.079-2.1.079-3.808.079-6.373,0-3.731,0-5.986.777-8.394a2.705,2.705,0,0,1,1.943-.7c2.254,0,5.13,2.177,6.373,7.384a22.091,22.091,0,0,1,.234,4.121c0,1.166,0,2.41-.078,3.808,1.477,0,2.8.079,4.042.079a21.588,21.588,0,0,0,3.575-.234,3.5,3.5,0,0,1,.233,1.243c0,1.244-.932,2.177-3.575,2.644a32.225,32.225,0,0,1-4.586.465c-.155,1.556-.389,3.187-.7,4.742a147.819,147.819,0,0,0-1.089,16.013c0,5.051.622,8.782,2.021,9.87a2.714,2.714,0,0,0,1.866.623c3.108,0,7-4.2,7.772-8.706.856.077,2.177,1.088,2.177,3.264a6.447,6.447,0,0,1-.467,2.41,11.364,11.364,0,0,1-11.037,7.7C128.007,61.561,125.365,58.141,123.966,54.1Z"/><path class="cls-1" d="M171.379,46.016c-.7,5.984-2.487,11.5-6.685,14.146a10.3,10.3,0,0,1-5.441,1.4c-5.208,0-11.27-2.8-13.6-7.072a28.086,28.086,0,0,1-3.187-13.6c0-7.23,2.255-14.148,6.141-17.024A7.944,7.944,0,0,1,153.191,22a8.669,8.669,0,0,1,3.964-.854,14.727,14.727,0,0,1,5.129,1.009,12.565,12.565,0,0,1,7.7,7.928,40.423,40.423,0,0,1,1.71,10.106,17.089,17.089,0,0,0,5.363-2.021A8.794,8.794,0,0,0,181.1,33.5a4.421,4.421,0,0,1,2.254,3.653,6.818,6.818,0,0,1-1.633,4.041C179.385,43.916,175.809,45.393,171.379,46.016Zm-17.644,4.741c1.01,3.5,2.642,5.83,4.43,5.83a2.069,2.069,0,0,0,.932-.233c.933-.389,1.866-1.633,2.721-3.5a34.8,34.8,0,0,0,2.1-6.763,32.19,32.19,0,0,1-5.985-1.477,19.838,19.838,0,0,1-5.441-3.032A32.293,32.293,0,0,0,153.735,50.757Zm11.037-10.184c.077-.776.155-1.707.155-2.64a18.039,18.039,0,0,0-.933-6.064c-1.243-3.109-3.964-5.286-6.14-5.286a2.9,2.9,0,0,0-2.1.932,5.169,5.169,0,0,0-1.243,3.422c0,2.331,1.321,4.818,3.42,6.917A10.985,10.985,0,0,0,164.772,40.573Z"/><path class="cls-1" d="M200.29,52.389c0-3.731.777-8.628.777-10.105-1.943,5.908-4.275,12.437-7.151,16.012a6.574,6.574,0,0,1-5.13,2.876,7.774,7.774,0,0,1-5.053-2.1,17.48,17.48,0,0,1-4.819-8.083,30.062,30.062,0,0,1-1.243-8.4A27.633,27.633,0,0,1,181.4,28.448c2.565-4.041,6.451-6.84,11.193-6.84a10.109,10.109,0,0,1,8.4,5.209,16.2,16.2,0,0,0,.465-2.565c.079-.389.778-.544,1.633-.544,2.254,0,5.674,1.322,6.84,3.343a2.834,2.834,0,0,1,.311,1.4c-.466,3.188-.156,5.6-.466,11.117-.234,4.275-.623,14.455-.623,15.388,1.633-1.163,3.187-2.33,4.509-3.418a20.357,20.357,0,0,0,3.653-3.732,3.687,3.687,0,0,1,1.943,3.188,5.544,5.544,0,0,1-1.166,2.954c-1.942,2.642-5.518,5.05-9.483,7.15-.543,4.352-1.787,8.939-4.352,11.97-2.487,2.954-7.074,4.352-11.193,4.352-2.8,0-9.094-.854-9.094-5.13a5.44,5.44,0,0,1,.777-2.565c1.632-2.564,5.6-4.508,9.172-6.217,2.41-1.167,6.218-3.188,6.218-3.188C200.134,58.84,200.29,56.43,200.29,52.389Zm-4.353-6.452a94.1,94.1,0,0,0,4.353-13.213c-.467-3.42-2.876-6.141-5.208-6.141-3.42,0-6.218,8.239-7,14.613a46.41,46.41,0,0,0-.312,5.364c0,5.364,1.166,7.929,2.721,7.929C191.972,54.489,193.838,50.447,195.937,45.937Zm3.809,19.51A56.745,56.745,0,0,0,192.6,69.1c-.467.311-1.4,1.01-1.4,1.633,0,.854,1.244,1.4,2.721,1.4a4.868,4.868,0,0,0,4.2-2.176A17.327,17.327,0,0,0,199.746,65.447Z"/><path class="cls-1" d="M226.325,60.785a3.552,3.552,0,0,1-1.788.387,6.983,6.983,0,0,1-5.907-4.2c-.933-2.331-1.244-7.694-1.244-13.368,0-3.188.078-7.462.155-10.493.079-2.489.156-4.742.156-6.53a20.89,20.89,0,0,0-.311-3.731,5.893,5.893,0,0,1,1.632-.232,6.663,6.663,0,0,1,5.519,3.419c1.555,2.332,1.71,5.518,1.71,8.783v3.032a35.8,35.8,0,0,1,2.332-5.985,12.665,12.665,0,0,1-.155-1.71,12.815,12.815,0,0,1,.31-2.8,8.838,8.838,0,0,1,2.566-4.895,2.438,2.438,0,0,1,1.632-.546c2.487,0,5.83,2.643,5.83,5.751,0,2.1-3.188,5.753-3.188,5.753s1.4,4.042,5.131,4.82a2.666,2.666,0,0,0,.777.077c2.487,0,4.819-2.176,5.441-4.663,1.322.155,2.177,1.322,2.177,3.186,0,3.964-3.654,6.374-8.085,6.374a12.2,12.2,0,0,1-10.26-5.284A36.747,36.747,0,0,0,227.88,44a24.618,24.618,0,0,0-1.866,7.85C226.014,55.032,226.092,57.752,226.325,60.785Z"/><path class="cls-1" d="M277.934,56.587c2.8,0,5.985-5.519,6.684-8.161.856.232,1.944,1.243,1.944,3.264a6.968,6.968,0,0,1-.233,1.711c-1.322,3.886-5.208,8.083-10.027,8.083a11.669,11.669,0,0,1-6.141-2.255,6.568,6.568,0,0,1-2.565-3.5,30.371,30.371,0,0,1-.933-7c0-1.011.078-2.021.157-3.264,0-.311.077-.623.077-.933-1.088,3.73-4.82,14.69-9.717,16.4a6.433,6.433,0,0,1-2.021.31c-2.642,0-5.207-1.787-7.072-4.741a26.31,26.31,0,0,1-3.653-12.982v-.854c0-7.928,3.186-17.488,9.638-20.053a10.767,10.767,0,0,1,4.119-.778,12.073,12.073,0,0,1,9.872,5.209,23.762,23.762,0,0,0,.311-2.8c.078-.778.621-1.167,1.477-1.167,2.41,0,6.761,2.8,6.839,6.219,0,.776-.155,2.721-.388,5.052-.466,4.431-1.01,10.416-1.01,14.924,0,3.653.387,6.451,1.554,6.995A2.892,2.892,0,0,0,277.934,56.587ZM260.6,50.447c2.487-4.276,4.974-11.426,6.374-17.723-.234-2.487-2.255-5.985-4.82-5.985a3.884,3.884,0,0,0-2.72,1.32c-3.188,3.343-5.052,12.282-5.052,18.656,0,3.964,1.088,7.694,2.253,7.694S259.2,52.857,260.6,50.447Z"/><path class="cls-1" d="M334.905,61.716c-3.731,0-7.851-3.031-9.016-7.462a29.13,29.13,0,0,1-.855-7.384c0-3.808.466-7.617.466-11.815a15.848,15.848,0,0,0-.389-3.808c-.31-1.167-.776-2.1-1.632-2.1-.544,0-1.322.778-2.1,2.178a65.545,65.545,0,0,0-4.665,11.582c-2.176,6.762-3.964,13.991-3.964,16.711v.467a8.908,8.908,0,0,1-2.565.387c-2.487,0-5.129-1.088-5.83-3.73a11.034,11.034,0,0,1-.232-2.408c0-2.722.544-6.452.7-10.962.079-1.709.079-3.575.079-5.284,0-4.742-.312-8.784-1.944-8.784s-4.353,6.763-6.608,14.147C294.33,50.135,292.7,57.287,292.7,60.4a3.359,3.359,0,0,1-1.322.233c-2.72,0-7.073-2.178-7.306-5.132-.077-1.088-.156-2.64-.156-4.429,0-3.5.156-7.851.389-11.193.234-4.276.621-7.461.621-10.728a28.8,28.8,0,0,0-.387-5.05,5.02,5.02,0,0,1,1.554-.234,6.766,6.766,0,0,1,6.063,3.5,16.835,16.835,0,0,1,.855,6.142c0,.7,0,1.477-.544,10.493a106.5,106.5,0,0,1,3.964-13.137c1.321-3.418,2.875-7.694,7.462-7.694a9.225,9.225,0,0,1,8.006,5.6,22.264,22.264,0,0,1,1.32,8.472c0,1.71-.077,3.341-.154,5.675a102.634,102.634,0,0,1,4.43-12.9c1.322-3.576,3.73-6.919,7.228-6.919a9.374,9.374,0,0,1,9.1,6.919,18.48,18.48,0,0,1,.544,4.741c0,2.331-.234,4.82-.389,7.384-.077,1.555-.389,4.9-.389,7.929,0,2.875.234,5.518,1.322,6.217a1.823,1.823,0,0,0,1.243.389c1.167,0,2.333-.933,3.421-2.255a21.069,21.069,0,0,0,3.42-6.217c.855.155,1.943,1.243,1.943,3.188a6.937,6.937,0,0,1-.232,1.709c-1.09,3.809-5.131,7.54-8.085,8.4A6.077,6.077,0,0,1,334.905,61.716Z"/></g></g></svg>